<svg width="283" height="75" viewBox="0 0 283 75" fill="none" xmlns="http://www.w3.org/2000/svg">
<path fill-rule="evenodd" clip-rule="evenodd" d="M36.9 0.800003C16.5 0.800003 0 17.4 0 37.8C0 58.2 16.5 74.7 36.9 74.7C57.3 74.7 73.8 58.2 73.8 37.8C73.9 17.4 57.3 0.800003 36.9 0.800003ZM36.8 12.1H36.9H37C41.6 12.1 46 14.5 48.4 18.7L60.5 39.7C64.1 46 62 54.1 55.7 57.8C49.4 61.4 41.3 59.3 37.6 53L32.2 43.7C31.9 43.2 31.7 42.7 31.4 42.3C30 40.1 27.6 38.7 24.9 38.7C20.6 38.7 17.2 42.2 17.2 46.4C17.2 50.6 20.7 54.1 24.9 54.1C28.2 54.1 31.1 52 32.2 49L35.3 54.4L35.4 54.5C33 57.6 29.2 59.6 25 59.6C17.7 59.6 11.8 53.7 11.8 46.4C11.8 39.1 17.7 33.2 25 33.2C29.8 33.2 34.1 35.8 36.4 39.7C36.7 40.3 37.1 40.9 37.4 41.4L42.5 50.3C44.6 54 49.4 55.3 53.1 53.1C56.8 51 58.1 46.2 55.9 42.5L43.8 21.5C42.4 19 39.8 17.7 37.1 17.6C34.4 17.6 31.8 19 30.4 21.5L25.3 30.4C25.2 30.4 25.1 30.4 25 30.4C22.5 30.4 20.1 31 18 32L25.6 18.8C27.9 14.5 32.3 12.1 36.8 12.1Z" fill="#CF1435"/>
<path d="M121.9 54.8L119.3 44.7H101.7L99 54.8H83L100.6 0.5H120L137.9 54.8H121.9ZM113.9 23.8C113.6 22.8 113.3 21.5 112.8 19.7C112.3 17.9 111.9 16.1 111.4 14.1C110.9 12.2 110.6 10.6 110.3 9.4C110.1 10.6 109.8 12.1 109.4 13.9C109 15.7 108.5 17.5 108.1 19.3C107.7 21.1 107.3 22.6 107 23.8L104.7 32.7H116.2L113.9 23.8Z" fill="#CF1435"/>
<path d="M158.5 20.8L167.8 0.800003H183.6L165.8 33.7V54.8H151.1V34.1L133.3 0.800003H149.2L158.5 20.8Z" fill="#CF1435"/>
<path d="M224.8 38.4C224.8 41.3 224.1 44.1 222.6 46.7C221.1 49.3 218.8 51.5 215.7 53.1C212.6 54.7 208.6 55.6 203.6 55.6C201.1 55.6 199 55.5 197.1 55.3C195.3 55.1 193.5 54.7 191.9 54.2C190.3 53.7 188.6 53 186.9 52.2V39.2C189.8 40.7 192.8 41.8 195.8 42.6C198.8 43.4 201.5 43.8 203.9 43.8C206.1 43.8 207.7 43.4 208.7 42.7C209.7 41.9 210.2 41 210.2 39.8C210.2 38.4 209.5 37.2 208 36.4C206.5 35.5 204 34.3 200.5 32.7C197.8 31.4 195.5 30.1 193.5 28.7C191.5 27.3 190 25.6 189 23.6C187.9 21.6 187.4 19 187.4 16C187.4 12.5 188.3 9.6 190 7.3C191.7 5 194.1 3.2 197.2 2C200.3 0.799997 203.8 0.199997 207.8 0.199997C211.3 0.199997 214.5 0.599997 217.3 1.4C220.1 2.2 222.6 3.1 224.9 4.1L220.4 15.4C218.1 14.3 215.8 13.5 213.5 12.9C211.3 12.3 209.2 12 207.3 12C205.4 12 204.1 12.3 203.2 13C202.3 13.7 201.9 14.5 201.9 15.5C201.9 16.4 202.2 17.1 202.9 17.8C203.6 18.5 204.7 19.2 206.2 20C207.7 20.8 209.8 21.8 212.5 23C215.1 24.2 217.4 25.4 219.2 26.8C221 28.2 222.5 29.8 223.4 31.7C224.3 33.2 224.8 35.6 224.8 38.4Z" fill="#CF1435"/>
<path d="M266.3 54.8L263.7 44.7H246.1L243.4 54.8H227.4L245 0.5H264.5L282.4 54.8H266.3ZM258.2 23.8C257.9 22.8 257.6 21.5 257.1 19.7C256.6 17.9 256.2 16.1 255.7 14.1C255.2 12.2 254.9 10.6 254.6 9.4C254.4 10.6 254.1 12.1 253.7 13.9C253.3 15.7 252.8 17.5 252.4 19.3C252 21.1 251.6 22.6 251.3 23.8L249 32.7H260.5L258.2 23.8Z" fill="#CF1435"/>
<path d="M92.7 72.2H85.9V60.3H92.7V62.4H88.3V65H92.4V67H88.3V70.1H92.7V72.2Z" fill="#767876"/>
<path d="M99.9 65H97.8V72.2H95.3V65H94V63.8L95.4 63.1V62.4C95.4 61.6 95.5 61 95.8 60.6C96.1 60.2 96.4 59.9 96.9 59.7C97.4 59.5 97.9 59.4 98.6 59.4C99.1 59.4 99.5 59.4 99.9 59.5C100.3 59.6 100.6 59.7 100.9 59.8L100.3 61.6C100.1 61.5 99.9 61.5 99.7 61.4C99.5 61.4 99.2 61.3 98.9 61.3C98.6 61.3 98.3 61.4 98.1 61.6C97.9 61.8 97.9 62.1 97.9 62.4V63H100V65H99.9Z" fill="#767876"/>
<path d="M106.3 65H104.2V72.2H101.7V65H100.3V63.8L101.7 63.1V62.4C101.7 61.6 101.8 61 102.1 60.6C102.4 60.2 102.7 59.9 103.2 59.7C103.7 59.5 104.2 59.4 104.9 59.4C105.4 59.4 105.8 59.4 106.2 59.5C106.6 59.6 106.9 59.7 107.2 59.8L106.6 61.6C106.4 61.5 106.2 61.5 106 61.4C105.8 61.4 105.5 61.3 105.2 61.3C104.9 61.3 104.6 61.4 104.4 61.6C104.2 61.8 104.2 62.1 104.2 62.4V63H106.3V65Z" fill="#767876"/>
<path d="M115.9 67.6C115.9 69.1 115.5 70.3 114.7 71.1C113.9 71.9 112.8 72.3 111.5 72.3C110.7 72.3 109.9 72.1 109.3 71.8C108.6 71.4 108.1 70.9 107.8 70.2C107.4 69.5 107.2 68.6 107.2 67.6C107.2 66.1 107.6 64.9 108.4 64.1C109.2 63.3 110.3 62.9 111.6 62.9C112.4 62.9 113.2 63.1 113.9 63.4C114.6 63.8 115.1 64.3 115.4 65C115.7 65.8 115.9 66.6 115.9 67.6ZM109.7 67.6C109.7 68.5 109.8 69.2 110.1 69.6C110.4 70.1 110.9 70.3 111.5 70.3C112.2 70.3 112.6 70.1 112.9 69.6C113.2 69.1 113.3 68.5 113.3 67.6C113.3 66.7 113.2 66 112.9 65.6C112.6 65.2 112.1 64.9 111.5 64.9C110.8 64.9 110.4 65.1 110.1 65.6C109.8 66.1 109.7 66.7 109.7 67.6Z" fill="#767876"/>
<path d="M123 63C123.1 63 123.3 63 123.4 63C123.6 63 123.7 63 123.8 63.1L123.6 65.4C123.5 65.4 123.4 65.4 123.3 65.3C123.2 65.3 123 65.3 122.9 65.3C122.5 65.3 122.1 65.4 121.7 65.5C121.3 65.6 121 65.9 120.8 66.2C120.6 66.5 120.4 67 120.4 67.6V72.2H118V63.2H119.9L120.3 64.7H120.4C120.7 64.2 121 63.8 121.5 63.5C121.9 63.1 122.4 63 123 63Z" fill="#767876"/>
<path d="M129.3 70.4C129.6 70.4 129.8 70.4 130.1 70.3C130.4 70.3 130.6 70.2 130.9 70.1V71.9C130.6 72 130.3 72.1 129.9 72.2C129.5 72.3 129.1 72.3 128.6 72.3C128.1 72.3 127.6 72.2 127.2 72C126.8 71.8 126.4 71.5 126.2 71.1C126 70.7 125.8 70.1 125.8 69.3V65H124.6V64L126 63.2L126.7 61.3H128.3V63.2H130.8V65H128.3V69.4C128.3 69.7 128.4 70 128.6 70.2C128.7 70.3 129 70.4 129.3 70.4Z" fill="#767876"/>
<path d="M135.2 59.6H132.7V72.2H135.2V59.6Z" fill="#767876"/>
<path d="M141.4 63C142.6 63 143.6 63.4 144.4 64.1C145.1 64.8 145.5 65.8 145.5 67.1V68.3H139.7C139.7 69 139.9 69.5 140.3 69.9C140.7 70.3 141.2 70.5 141.9 70.5C142.5 70.5 143 70.4 143.5 70.3C144 70.2 144.5 70 145 69.8V71.7C144.5 71.9 144.1 72.1 143.6 72.2C143.1 72.3 142.5 72.4 141.8 72.4C140.9 72.4 140.1 72.2 139.4 71.9C138.7 71.6 138.2 71.1 137.8 70.4C137.4 69.7 137.2 68.9 137.2 67.8C137.2 66.8 137.4 65.9 137.7 65.2C138.1 64.5 138.6 64 139.2 63.6C139.8 63.1 140.6 63 141.4 63ZM141.4 64.7C140.9 64.7 140.5 64.9 140.2 65.2C139.9 65.5 139.7 66 139.7 66.6H143.2C143.2 66.1 143 65.6 142.8 65.2C142.4 64.9 142 64.7 141.4 64.7Z" fill="#767876"/>
<path d="M153.8 69.5C153.8 70.4 153.5 71.1 152.8 71.6C152.2 72.1 151.2 72.3 149.9 72.3C149.3 72.3 148.7 72.3 148.3 72.2C147.8 72.1 147.4 72 146.9 71.8V69.8C147.4 70 147.9 70.2 148.5 70.3C149.1 70.4 149.6 70.5 150 70.5C150.5 70.5 150.8 70.4 151 70.3C151.2 70.2 151.3 70 151.3 69.7C151.3 69.5 151.3 69.4 151.2 69.3C151.1 69.2 150.9 69 150.7 68.9C150.4 68.7 150 68.5 149.4 68.3C148.8 68.1 148.4 67.8 148 67.6C147.6 67.4 147.4 67.1 147.2 66.7C147 66.4 146.9 65.9 146.9 65.4C146.9 64.6 147.2 63.9 147.9 63.5C148.6 63.1 149.4 62.9 150.5 62.9C151.1 62.9 151.6 63 152.1 63.1C152.6 63.2 153.1 63.4 153.7 63.6L153 65.4C152.6 65.2 152.1 65.1 151.7 64.9C151.3 64.8 150.9 64.7 150.5 64.7C149.8 64.7 149.4 64.9 149.4 65.3C149.4 65.4 149.4 65.6 149.5 65.7C149.6 65.8 149.8 65.9 150 66.1C150.3 66.2 150.7 66.4 151.2 66.6C151.7 66.8 152.2 67 152.5 67.3C152.9 67.5 153.2 67.8 153.4 68.2C153.7 68.5 153.8 68.9 153.8 69.5Z" fill="#767876"/>
<path d="M162 69.5C162 70.4 161.7 71.1 161 71.6C160.4 72.1 159.4 72.3 158.1 72.3C157.5 72.3 156.9 72.3 156.5 72.2C156 72.1 155.6 72 155.1 71.8V69.8C155.6 70 156.1 70.2 156.7 70.3C157.3 70.4 157.8 70.5 158.2 70.5C158.7 70.5 159 70.4 159.2 70.3C159.4 70.2 159.5 70 159.5 69.7C159.5 69.5 159.5 69.4 159.4 69.3C159.3 69.2 159.1 69 158.9 68.9C158.6 68.7 158.2 68.5 157.6 68.3C157 68.1 156.6 67.8 156.2 67.6C155.8 67.4 155.6 67.1 155.4 66.7C155.2 66.4 155.1 65.9 155.1 65.4C155.1 64.6 155.4 63.9 156.1 63.5C156.8 63.1 157.6 62.9 158.7 62.9C159.3 62.9 159.8 63 160.3 63.1C160.8 63.2 161.3 63.4 161.9 63.6L161.2 65.4C160.8 65.2 160.3 65.1 159.9 64.9C159.5 64.8 159.1 64.7 158.7 64.7C158 64.7 157.6 64.9 157.6 65.3C157.6 65.4 157.6 65.6 157.7 65.7C157.8 65.8 158 65.9 158.2 66.1C158.5 66.2 158.9 66.4 159.4 66.6C159.9 66.8 160.4 67 160.7 67.3C161.1 67.5 161.4 67.8 161.6 68.2C161.9 68.5 162 68.9 162 69.5Z" fill="#767876"/>
<path d="M175.4 68.9C175.4 69.9 175 70.8 174.3 71.4C173.5 72 172.5 72.3 171.1 72.3C169.9 72.3 168.7 72.1 167.8 71.6V69.3C168.4 69.5 168.9 69.8 169.5 70C170.1 70.2 170.7 70.3 171.3 70.3C171.9 70.3 172.4 70.2 172.6 69.9C172.9 69.7 173 69.4 173 69C173 68.7 172.9 68.4 172.7 68.2C172.5 68 172.2 67.8 171.9 67.6C171.6 67.4 171.2 67.2 170.7 67C170.4 66.9 170.1 66.7 169.8 66.5C169.5 66.3 169.2 66.1 168.9 65.8C168.6 65.5 168.4 65.2 168.2 64.8C168 64.4 167.9 64 167.9 63.4C167.9 62.3 168.3 61.5 169 60.9C169.7 60.3 170.7 60 171.9 60C172.5 60 173.1 60.1 173.7 60.2C174.3 60.3 174.8 60.5 175.5 60.8L174.7 62.8C174.2 62.6 173.7 62.4 173.2 62.3C172.8 62.2 172.3 62.1 171.9 62.1C171.4 62.1 171.1 62.2 170.8 62.4C170.5 62.6 170.4 62.9 170.4 63.3C170.4 63.7 170.6 64.1 171 64.3C171.4 64.5 171.9 64.8 172.7 65.2C173.3 65.5 173.8 65.8 174.2 66.1C174.6 66.4 175 66.8 175.2 67.2C175.3 67.7 175.4 68.3 175.4 68.9Z" fill="#767876"/>
<path d="M177 71C177 70.5 177.1 70.1 177.4 69.9C177.7 69.7 178 69.6 178.4 69.6C178.8 69.6 179.1 69.7 179.4 69.9C179.7 70.1 179.8 70.5 179.8 71C179.8 71.5 179.7 71.8 179.4 72.1C179.1 72.3 178.8 72.4 178.4 72.4C178 72.4 177.7 72.3 177.4 72.1C177.1 71.8 177 71.5 177 71Z" fill="#767876"/>
<path d="M189.1 72.2H182.3V60.3H189.1V62.4H184.8V65H188.8V67H184.8V70.1H189.1V72.2Z" fill="#767876"/>
<path d="M191 71C191 70.5 191.1 70.1 191.4 69.9C191.7 69.7 192 69.6 192.4 69.6C192.8 69.6 193.1 69.7 193.4 69.9C193.7 70.1 193.8 70.5 193.8 71C193.8 71.5 193.7 71.8 193.4 72.1C193.1 72.3 192.8 72.4 192.4 72.4C192 72.4 191.7 72.3 191.4 72.1C191.1 71.8 191 71.5 191 71Z" fill="#767876"/>
<path d="M206.1 66.2C206.1 67.4 205.9 68.5 205.5 69.4C205.1 70.3 204.5 71 203.6 71.5C202.8 72 201.7 72.3 200.4 72.3C199.1 72.3 198.1 72 197.2 71.5C196.4 71 195.8 70.3 195.3 69.4C194.9 68.5 194.7 67.4 194.7 66.2C194.7 65 194.9 63.9 195.3 63C195.7 62.1 196.3 61.4 197.2 60.9C198 60.4 199.1 60.1 200.4 60.1C201.7 60.1 202.7 60.4 203.6 60.9C204.4 61.4 205 62.1 205.4 63C205.9 63.9 206.1 65 206.1 66.2ZM197.5 66.2C197.5 67.4 197.7 68.4 198.2 69.1C198.7 69.8 199.4 70.2 200.5 70.2C201.6 70.2 202.3 69.8 202.8 69.1C203.3 68.4 203.5 67.4 203.5 66.2C203.5 65 203.3 64 202.8 63.3C202.3 62.6 201.6 62.2 200.5 62.2C199.4 62.2 198.7 62.6 198.2 63.3C197.7 64 197.5 65 197.5 66.2Z" fill="#767876"/>
<path d="M207.4 71C207.4 70.5 207.5 70.1 207.8 69.9C208.1 69.7 208.4 69.6 208.8 69.6C209.2 69.6 209.5 69.7 209.8 69.9C210.1 70.1 210.2 70.5 210.2 71C210.2 71.5 210.1 71.8 209.8 72.1C209.5 72.3 209.2 72.4 208.8 72.4C208.4 72.4 208.1 72.3 207.8 72.1C207.5 71.8 207.4 71.5 207.4 71Z" fill="#767876"/>
</svg>
